<?xml version="1.0" encoding="iso-8859-1"?>
<!-- Uploaded to: SVG Repo, www.svgrepo.com, Generator: SVG Repo Mixer Tools -->
<svg fill="#000000" height="800px" width="800px" version="1.1" id="Layer_1" xmlns="http://www.w3.org/2000/svg" xmlns:xlink="http://www.w3.org/1999/xlink" 
	 viewBox="0 0 512 512" xml:space="preserve">
<g>
	<g>
		<path d="M415.475,125.516c-6.656-1.259-81.408-14.359-120.967,22.074c-0.243,0.224-0.462,0.464-0.7,0.689v-13.412
			c21.412-13.099,34.891-36.729,34.891-62.129C328.698,32.631,296.067,0,255.96,0s-72.738,32.631-72.738,72.738
			c0,25.399,13.477,49.028,34.891,62.129v13.412c-0.24-0.226-0.458-0.465-0.7-0.689c-50.489-46.496-183.861-24.593-212.606,27.678
			c-7.081,12.876-5.033,23.253-2.068,29.693c7.649,16.608,30.505,25.265,60.055,23.902c-3.444,11.564,0.031,20.043,2.442,24.101
			c8.102,13.633,26.649,19.607,50.352,16.908c-0.887,13.938,4.205,25.581,14.756,32.317c26.739,17.069,65.548-7.142,87.768-33.73
			v33.21c-107.638,13.973-106.877,79.011-9.527,95.458c-32.659,7.008-51.578,20.919-51.578,38.705
			c0,19.462,22.66,34.279,61.175,40.493c1.13,19.861,17.64,35.675,37.779,35.675s36.649-15.814,37.776-35.675
			c38.515-6.214,61.175-21.031,61.175-40.493c0-17.786-18.919-31.699-51.578-38.705c98.774-16.688,96.605-81.68-9.527-95.458v-33.21
			c11.893,14.232,27.208,26.601,43.008,33.607c36.199,16.053,61.342-3.5,59.516-32.192c42.432,4.831,59.569-18.264,52.794-41.01
			c29.547,1.349,52.408-7.296,60.056-23.902C525.034,170.536,471.204,133.125,415.475,125.516z M217.319,221.13
			c-5.694,33.535-56.463,72.843-74.414,61.382c-6.072-3.877-4.535-14.521-1.072-23.189c3.551-8.888-4.588-18.133-13.906-15.592
			c-24.353,6.634-39.583,2.422-42.62-2.692c-1.78-2.996,0.23-9.988,8.734-18.855c7.924-8.264,0.369-21.881-10.856-19.495
			c-33.148,7.064-55.704,0.187-59.24-7.493c-5.805-12.595,36.925-51.779,116.457-49.644
			C193.459,146.953,223.447,168.836,217.319,221.13z M160.04,350.107c0-6.48,19.402-19.338,58.072-24.886v49.771
			C179.442,369.443,160.04,356.587,160.04,350.107z M218.119,452.616c-27.632-5.165-37.767-14.484-37.767-16.784
			c0-2.302,10.134-11.619,37.767-16.786V452.616z M242.256,478.896c9.256,0.501,19.347,0.437,27.408,0
			C265.165,491.876,246.753,491.87,242.256,478.896z M270.46,455.448c-9.272,0.593-18.237,0.652-28.126,0.061
			c-0.293-0.017-0.582-0.042-0.873-0.061c0-21.843,0-32.841,0-54.84c9.586,0.456,20.096,0.423,28.999,0
			C270.46,422.609,270.46,433.6,270.46,455.448z M270.46,377.22c-9.485,0.492-18.777,0.509-28.439,0.031
			c-0.187-0.009-0.374-0.022-0.56-0.031c0-0.599-0.005-66.148-0.005-233.156c9.561,1.958,19.605,1.925,29.008,0
			C270.464,157.176,270.46,369.435,270.46,377.22z M293.808,325.221c38.671,5.548,58.072,18.404,58.072,24.886
			c0,6.48-19.402,19.338-58.072,24.886V325.221z M331.57,435.832c0,2.302-10.136,11.619-37.767,16.784v-33.569
			C321.434,424.211,331.57,433.53,331.57,435.832z M277.131,117.393c-13.794,6.546-29.285,6.197-42.342,0
			c-17.145-8.147-28.224-25.675-28.224-44.654c0-27.236,22.159-49.395,49.395-49.395s49.395,22.159,49.395,49.395
			C305.355,91.72,294.275,109.247,277.131,117.393z M487.979,195.195c-3.537,7.68-26.096,14.555-59.241,7.493
			c-11.241-2.389-18.77,11.242-10.856,19.495c8.503,8.867,10.514,15.858,8.734,18.855c-3.036,5.109-18.269,9.325-42.62,2.692
			c-9.284-2.534-17.47,6.673-13.906,15.592c9.232,23.105-3.083,30.591-23.81,21.401c-23.943-10.617-48.088-38.461-51.676-59.594
			c-6.128-52.288,23.852-74.176,76.918-75.578C451.7,143.413,493.659,182.849,487.979,195.195z"/>
	</g>
</g>
</svg>